<svg xmlns="http://www.w3.org/2000/svg" width="90.958" height="25.121" viewBox="0 0 90.958 25.121">
  <g id="Smilesロゴ" transform="translate(45.479 12.56)">
    <g id="グループ_3" data-name="グループ 3" transform="translate(-45.479 -12.56)">
      <g id="グループ_2" data-name="グループ 2">
        <path id="パス_1" data-name="パス 1" d="M486.506,23.318l0-.013-.546-1.765a1.213,1.213,0,0,0-.563-.769,1.073,1.073,0,0,0-.893-.022l-.074.032a1.149,1.149,0,0,1-.52.146,8.958,8.958,0,0,1-.269-3.15V1.191A1.086,1.086,0,0,0,482.554.1h-2.172A1.086,1.086,0,0,0,479.3,1.191V19.557c0,1.623,0,5.422,3.638,5.657h.027c.109,0,.592-.013.71-.024a6,6,0,0,0,2.223-.628A1.06,1.06,0,0,0,486.506,23.318Z" transform="translate(-428.167 -0.094)" fill="#31ae53"/>
        <g id="グループ_1" data-name="グループ 1" transform="translate(43.445)">
          <path id="パス_2" data-name="パス 2" d="M416.218,64.284h-2.137a1.148,1.148,0,0,0-1.1,1.189V81.353a1.148,1.148,0,0,0,1.1,1.189h2.137a1.148,1.148,0,0,0,1.1-1.189V65.473A1.148,1.148,0,0,0,416.218,64.284Z" transform="translate(-412.368 -57.426)" fill="#31ae53"/>
          <path id="パス_3" data-name="パス 3" d="M410.188,5.9a2.9,2.9,0,0,0,2.833-2.948,2.891,2.891,0,1,0-5.781,0A2.917,2.917,0,0,0,410.188,5.9Z" transform="translate(-407.239)" fill="#e3d500"/>
        </g>
        <path id="パス_4" data-name="パス 4" d="M554.522,65.222a8.667,8.667,0,0,0-8.854,9.063c0,5.354,3.851,9.093,9.364,9.093a8.739,8.739,0,0,0,6.867-2.956,1.06,1.06,0,0,0-.012-1.383l-1.2-1.378a1.065,1.065,0,0,0-1.616.01,5.057,5.057,0,0,1-4.011,1.691,4.954,4.954,0,0,1-4.423-2.248l11.636-2.263a1.06,1.06,0,0,0,.861-1.081A8.5,8.5,0,0,0,554.522,65.222Zm4.17,6.631-8.71,1.69a4.443,4.443,0,0,1,4.628-4.325A4.276,4.276,0,0,1,558.692,71.853Z" transform="translate(-487.455 -58.264)" fill="#31ae53"/>
        <path id="パス_5" data-name="パス 5" d="M14.528,12.54a16.025,16.025,0,0,0-5.061-2.024l-.08.294h0l.08-.294C6.42,9.688,4.7,9.127,4.7,7.225c0-1.853,1.6-2.959,4.287-2.959a8.67,8.67,0,0,1,4.948,1.669.992.992,0,0,0,.914.141,1.078,1.078,0,0,0,.652-.645l.722-1.9a1.181,1.181,0,0,0-.355-1.328A11.559,11.559,0,0,0,8.985,0,9.134,9.134,0,0,0,2.647,2.117,6.933,6.933,0,0,0,.49,7.289a6.157,6.157,0,0,0,2.618,5.394,15.921,15.921,0,0,0,5.086,2.038c3.023.819,4.733,1.375,4.733,3.265,0,1.819-1.594,2.863-4.374,2.863a8.308,8.308,0,0,1-5.915-2.394,1,1,0,0,0-.93-.32,1.067,1.067,0,0,0-.766.613L.1,20.579a1.189,1.189,0,0,0,.172,1.252C2,23.826,5.251,25.115,8.552,25.115a9.328,9.328,0,0,0,6.383-2.093,6.848,6.848,0,0,0,2.2-5.164A6.059,6.059,0,0,0,14.528,12.54Z" transform="translate(0)" fill="#31ae53"/>
        <path id="パス_6" data-name="パス 6" d="M729.663,72.388l-.239-.051L728.8,72.2c-2.084-.438-2.93-.65-2.93-1.488a1.463,1.463,0,0,1,1.057-1.324,5.149,5.149,0,0,1,1.914-.373,6,6,0,0,1,3.826,1.341.875.875,0,0,0,.792.173.971.971,0,0,0,.6-.519l.834-1.251a.291.291,0,0,0,.023-.041,1.059,1.059,0,0,0-.2-1.306,8.4,8.4,0,0,0-5.957-2.194h0c-4.007,0-6.915,2.338-6.915,5.558,0,3.937,3.742,4.648,6.218,5.118.255.048.5.094.721.141,2.163.454,2.893.883,2.893,1.7,0,.5-.276,1.65-2.831,1.65a7.165,7.165,0,0,1-4.353-1.681.888.888,0,0,0-.8-.222.958.958,0,0,0-.624.5l-1.365,1.6a.306.306,0,0,0-.042.064.991.991,0,0,0,.374,1.155,9.372,9.372,0,0,0,6.6,2.572l.207,0c4.016,0,6.713-2.29,6.713-5.7C735.564,73.644,732.013,72.888,729.663,72.388Z" transform="translate(-644.606 -58.264)" fill="#31ae53"/>
        <path id="パス_7" data-name="パス 7" d="M200,65.978l0,0a6.756,6.756,0,0,0-4.668-1.631,5.977,5.977,0,0,0-4.375,1.628,6.269,6.269,0,0,0-4.465-1.628,6.724,6.724,0,0,0-2.647.494.853.853,0,0,0-.624-.272h-2.557a.874.874,0,0,0-.864.883V81.713a.874.874,0,0,0,.864.883h2.6a.879.879,0,0,0,.876-.88v-11a1.736,1.736,0,0,1,.619-1.457,2.612,2.612,0,0,1,1.821-.629,2.394,2.394,0,0,1,1.739.669,1.694,1.694,0,0,1,.614,1.416v11a.879.879,0,0,0,.876.88h2.6a.874.874,0,0,0,.866-.88v-11a1.953,1.953,0,0,1,2.239-2.085,2.166,2.166,0,0,1,1.732.608,2.02,2.02,0,0,1,.594,1.478v11a.874.874,0,0,0,.866.88h2.378a.874.874,0,0,0,.864-.883V70.679A6.051,6.051,0,0,0,200,65.978Z" transform="translate(-160.616 -57.48)" fill="#31ae53"/>
      </g>
    </g>
  </g>
</svg>
